{
   "status" : "ok",
   "files" : [
      {
         "url_pls" : "https://am38oja80gso26tq7ppsf2mpiqvh2ig7r7a52o0.gcdn.biz/pls/bsNRPn808i9M97TsOIMZJbSR3jbe6i6q43Q-BxRgH4mwRCk0eWSkm6kVkvjlhM7lzyx11LGuHEMlu-Qkx1uPDhDez97dGlw6vxFKB9nUUWA/Two%20Can%20Play%20That%20Game.avi.xspf",
         "id_feeds" : "0",
         "is_linked" : "1",
         "url_page" : "https://www.furk.net/df/f9d37470d34a6849",
         "video_info" : "Duration: 01:31:13.34, start: 0.000000, bitrate: 1074 kb/s\n    Stream #0:0: Video: msmpeg4v3 (DIV3 / 0x33564944), yuv420p, 640x352, 23.98 tbr, 23.98 tbn, 23.98 tbc\n    Stream #0:1: Audio: mp3 (U[0][0][0] / 0x0055), 48000 Hz, stereo, s16, 117 kb/s",
         "id" : "6793868720658664044",
         "ss_height" : "165",
         "id_labels" : [],
         "files_num_video_player" : "0",
         "name" : "Two Can Play That Game.avi",
         "is_ready" : "1",
         "url_dl" : "https://am38oja80gso26tq7ppsf2mpiqvh2ig7r7a52o0.gcdn.biz/d/r/bsNRPn808i9M97TsOIMZJbSR3jbe6i6q43Q-BxRgH4mwRCk0eWSkm6kVkvjlhM7lzyx11LGuHEMlu-Qkx1uPDhDez97dGlw6vxFKB9nUUWA/Two%20Can%20Play%20That%20Game.avi",
         "media_proc_done" : "1",
         "ss_num" : "9",
         "files_num_video" : "1",
         "type" : "video",
         "info_hash" : "67A7F1EAB4D7617114052B5CE0A7589AAA177307",
         "av_time" : "2012-06-30 13:12:43",
         "status" : "",
         "av_result" : "error",
         "ss_width" : "300",
         "size" : "735010816",
         "av_info" : "",
         "files_num_audio" : "0",
         "ss_urls_tn" : [
            "https://am38oja80gso26tq7ppsf2mpiqvh2ig7r7a52o0.gcdn.biz/ss/859186/tn_1",
            "https://am38oja80gso26tq7ppsf2mpiqvh2ig7r7a52o0.gcdn.biz/ss/859186/tn_2",
            "https://am38oja80gso26tq7ppsf2mpiqvh2ig7r7a52o0.gcdn.biz/ss/859186/tn_3",
            "https://am38oja80gso26tq7ppsf2mpiqvh2ig7r7a52o0.gcdn.biz/ss/859186/tn_4",
            "https://am38oja80gso26tq7ppsf2mpiqvh2ig7r7a52o0.gcdn.biz/ss/859186/tn_5",
            "https://am38oja80gso26tq7ppsf2mpiqvh2ig7r7a52o0.gcdn.biz/ss/859186/tn_6",
            "https://am38oja80gso26tq7ppsf2mpiqvh2ig7r7a52o0.gcdn.biz/ss/859186/tn_7",
            "https://am38oja80gso26tq7ppsf2mpiqvh2ig7r7a52o0.gcdn.biz/ss/859186/tn_8",
            "https://am38oja80gso26tq7ppsf2mpiqvh2ig7r7a52o0.gcdn.biz/ss/859186/tn_9"
         ],
         "ctime" : "2013-12-29 19:20:56",
         "ss_urls" : [
            "https://am38oja80gso26tq7ppsf2mpiqvh2ig7r7a52o0.gcdn.biz/ss/859186/1",
            "https://am38oja80gso26tq7ppsf2mpiqvh2ig7r7a52o0.gcdn.biz/ss/859186/2",
            "https://am38oja80gso26tq7ppsf2mpiqvh2ig7r7a52o0.gcdn.biz/ss/859186/3",
            "https://am38oja80gso26tq7ppsf2mpiqvh2ig7r7a52o0.gcdn.biz/ss/859186/4",
            "https://am38oja80gso26tq7ppsf2mpiqvh2ig7r7a52o0.gcdn.biz/ss/859186/5",
            "https://am38oja80gso26tq7ppsf2mpiqvh2ig7r7a52o0.gcdn.biz/ss/859186/6",
            "https://am38oja80gso26tq7ppsf2mpiqvh2ig7r7a52o0.gcdn.biz/ss/859186/7",
            "https://am38oja80gso26tq7ppsf2mpiqvh2ig7r7a52o0.gcdn.biz/ss/859186/8",
            "https://am38oja80gso26tq7ppsf2mpiqvh2ig7r7a52o0.gcdn.biz/ss/859186/9"
         ],
         "files_num_image" : "0",
         "ss_urls_tn_all" : "https://am38oja80gso26tq7ppsf2mpiqvh2ig7r7a52o0.gcdn.biz/ss/859186/tn_all",
         "files_num_audio_player" : "0",
         "notes" : ""
      },
      {
         "url_pls" : "https://3582soma8co1nhtmikc64nuc3avh2ig7r7a52o0.gcdn.biz/pls/qJQhQkG_Fh3EypQhGabOp9f5nEetNCA443Q-BxRgH4mwRCk0eWSkm5b0EJ051x5lDjiOGLf8y2wlu-Qkx1uPDhDez97dGlw6vxFKB9nUUWA/Phineas%20and%20Ferb%20S02E101-Summer%20Belongs%20to%20You.HDTV%5BhRT%5D_370867.xspf",
         "id_feeds" : "0",
         "is_linked" : "1",
         "url_page" : "https://www.furk.net/df/5de7bb4f3f45d900",
         "video_info" : "Duration: 00:45:06.90, start: 0.000000, bitrate: 1115 kb/s\n    Stream #0:0: Video: mpeg4 (Advanced Simple Profile) (XVID / 0x44495658), yuv420p, 624x352 [SAR 1:1 DAR 39:22], 29.97 tbr, 29.97 tbn, 29.98 tbc\n    Stream #0:1: Audio: mp3 (U[0][0][0] / 0x0055), 48000 Hz, stereo, s16, 128 kb/s",
         "id" : "3855809431797243230",
         "ss_height" : "169",
         "id_labels" : [],
         "files_num_video_player" : "0",
         "name" : "Phineas and Ferb S02E101-Summer Belongs to You.HDTV[hRT]_370867",
         "is_ready" : "1",
         "url_dl" : "https://3582soma8co1nhtmikc64nuc3avh2ig7r7a52o0.gcdn.biz/d/r/qJQhQkG_Fh3EypQhGabOp9f5nEetNCA443Q-BxRgH4mwRCk0eWSkm5b0EJ051x5lDjiOGLf8y2wlu-Qkx1uPDhDez97dGlw6vxFKB9nUUWA/Phineas%20and%20Ferb%20S02E101-Summer%20Belongs%20to%20You.HDTV%5BhRT%5D_370867",
         "media_proc_done" : "1",
         "ss_num" : "9",
         "files_num_video" : "1",
         "type" : "video",
         "info_hash" : "D8F6344A1FDF9414CFBC451CECBA17E1110F828E",
         "av_time" : "2010-11-17 11:17:17",
         "status" : "",
         "av_result" : "ok",
         "ss_width" : "300",
         "size" : "377526201",
         "av_info" : "Scan summary: Infected=0 Warnings=0 Suspicios=0 Corrupted=0 Protected=0",
         "files_num_audio" : "0",
         "ss_urls_tn" : [
            "https://3582soma8co1nhtmikc64nuc3avh2ig7r7a52o0.gcdn.biz/ss/1132841/tn_1",
            "https://3582soma8co1nhtmikc64nuc3avh2ig7r7a52o0.gcdn.biz/ss/1132841/tn_2",
            "https://3582soma8co1nhtmikc64nuc3avh2ig7r7a52o0.gcdn.biz/ss/1132841/tn_3",
            "https://3582soma8co1nhtmikc64nuc3avh2ig7r7a52o0.gcdn.biz/ss/1132841/tn_4",
            "https://3582soma8co1nhtmikc64nuc3avh2ig7r7a52o0.gcdn.biz/ss/1132841/tn_5",
            "https://3582soma8co1nhtmikc64nuc3avh2ig7r7a52o0.gcdn.biz/ss/1132841/tn_6",
            "https://3582soma8co1nhtmikc64nuc3avh2ig7r7a52o0.gcdn.biz/ss/1132841/tn_7",
            "https://3582soma8co1nhtmikc64nuc3avh2ig7r7a52o0.gcdn.biz/ss/1132841/tn_8",
            "https://3582soma8co1nhtmikc64nuc3avh2ig7r7a52o0.gcdn.biz/ss/1132841/tn_9"
         ],
         "ctime" : "2013-12-27 17:26:12",
         "ss_urls" : [
            "https://3582soma8co1nhtmikc64nuc3avh2ig7r7a52o0.gcdn.biz/ss/1132841/1",
            "https://3582soma8co1nhtmikc64nuc3avh2ig7r7a52o0.gcdn.biz/ss/1132841/2",
            "https://3582soma8co1nhtmikc64nuc3avh2ig7r7a52o0.gcdn.biz/ss/1132841/3",
            "https://3582soma8co1nhtmikc64nuc3avh2ig7r7a52o0.gcdn.biz/ss/1132841/4",
            "https://3582soma8co1nhtmikc64nuc3avh2ig7r7a52o0.gcdn.biz/ss/1132841/5",
            "https://3582soma8co1nhtmikc64nuc3avh2ig7r7a52o0.gcdn.biz/ss/1132841/6",
            "https://3582soma8co1nhtmikc64nuc3avh2ig7r7a52o0.gcdn.biz/ss/1132841/7",
            "https://3582soma8co1nhtmikc64nuc3avh2ig7r7a52o0.gcdn.biz/ss/1132841/8",
            "https://3582soma8co1nhtmikc64nuc3avh2ig7r7a52o0.gcdn.biz/ss/1132841/9"
         ],
         "files_num_image" : "0",
         "ss_urls_tn_all" : "https://3582soma8co1nhtmikc64nuc3avh2ig7r7a52o0.gcdn.biz/ss/1132841/tn_all",
         "files_num_audio_player" : "0",
         "notes" : ""
      },
      {
         "av_time" : "0000-00-00 00:00:00",
         "id_feeds" : "0",
         "status" : "",
         "is_linked" : "1",
         "av_result" : "error",
         "url_page" : "https://www.furk.net/df/fb48208da010443d",
         "size" : "471019961",
         "ss_width" : "0",
         "av_info" : "",
         "files_num_audio" : "0",
         "video_info" : "",
         "id" : "7775512427915569966",
         "ctime" : "2013-12-26 19:14:17",
         "ss_height" : "0",
         "id_labels" : [],
         "files_num_video_player" : "0",
         "name" : "MAGIX Pro X2 v9.0.1.84.rar",
         "is_ready" : "1",
         "url_dl" : "https://sfdg8jo3ijckjbobgjiuqu1v0avh2ig7r7a52o0.gcdn.biz/d/r/ofaguLY3qCa4PL9M10VLKlXtOhdhKwUp43Q-BxRgH4mwRCk0eWSkm7_NLbfJ5YZfJRlL-vzIgv0lu-Qkx1uPDhDez97dGlw6vxFKB9nUUWA/MAGIX%20Pro%20X2%20v9.0.1.84.rar",
         "files_num_image" : "0",
         "files_num_audio_player" : "0",
         "media_proc_done" : "1",
         "notes" : "",
         "ss_num" : "0",
         "files_num_video" : "0",
         "type" : "",
         "info_hash" : "602AE397BC9F6C04E0306DB4737D0EAA6CEF59CA"
      },
      {
         "url_pls" : "https://am38oja80gso26tq7ppsf2mpiqvh2ig7r7a52o0.gcdn.biz/pls/M15ITYIrr140tBOu1mlfF4CZ1EPDjVpS43Q-BxRgH4mwRCk0eWSkmzd-xdheOWnH-O681vZsJlQlu-Qkx1uPDhDez97dGlw6vxFKB9nUUWA/Doctor_Who_2005.2013_Christmas_Special.The_Time_of_The_Doctor.HDTV_x264-FoV%5Brarbg%5D.xspf",
         "id_feeds" : "0",
         "is_linked" : "1",
         "url_page" : "https://www.furk.net/df/f6357d426d521927",
         "video_info" : "Duration: 01:00:59.30, start: 0.000000, bitrate: 1090 kb/s\n    Stream #0:0(eng): Video: h264 (High) (avc1 / 0x31637661), yuv420p, 720x404, 954 kb/s, 25 fps, 25 tbr, 20k tbn, 50 tbc\n    Metadata:\n      handler_name    : VideoHandler\n    Stream #0:1(und): Audio: aac (mp4a / 0x6134706D), 48000 Hz, stereo, s16, 123 kb/s\n    Metadata:\n      handler_name    : SoundHandler",
         "id" : "1525041627666804918",
         "ss_height" : "168",
         "id_labels" : [],
         "files_num_video_player" : "2",
         "name" : "Doctor_Who_2005.2013_Christmas_Special.The_Time_of_The_Doctor.HDTV_x264-FoV[rarbg]",
         "is_ready" : "1",
         "url_dl" : "https://am38oja80gso26tq7ppsf2mpiqvh2ig7r7a52o0.gcdn.biz/d/r/M15ITYIrr140tBOu1mlfF4CZ1EPDjVpS43Q-BxRgH4mwRCk0eWSkmzd-xdheOWnH-O681vZsJlQlu-Qkx1uPDhDez97dGlw6vxFKB9nUUWA/Doctor_Who_2005.2013_Christmas_Special.The_Time_of_The_Doctor.HDTV_x264-FoV%5Brarbg%5D",
         "media_proc_done" : "1",
         "ss_num" : "9",
         "files_num_video" : "2",
         "type" : "video",
         "info_hash" : "9722CE249229E3B22D5D278F48732D717835761A",
         "av_time" : "0000-00-00 00:00:00",
         "status" : "",
         "av_result" : "error",
         "ss_width" : "300",
         "size" : "498977804",
         "av_info" : "",
         "files_num_audio" : "0",
         "ss_urls_tn" : [
            "https://am38oja80gso26tq7ppsf2mpiqvh2ig7r7a52o0.gcdn.biz/ss/4108962/tn_1",
            "https://am38oja80gso26tq7ppsf2mpiqvh2ig7r7a52o0.gcdn.biz/ss/4108962/tn_2",
            "https://am38oja80gso26tq7ppsf2mpiqvh2ig7r7a52o0.gcdn.biz/ss/4108962/tn_3",
            "https://am38oja80gso26tq7ppsf2mpiqvh2ig7r7a52o0.gcdn.biz/ss/4108962/tn_4",
            "https://am38oja80gso26tq7ppsf2mpiqvh2ig7r7a52o0.gcdn.biz/ss/4108962/tn_5",
            "https://am38oja80gso26tq7ppsf2mpiqvh2ig7r7a52o0.gcdn.biz/ss/4108962/tn_6",
            "https://am38oja80gso26tq7ppsf2mpiqvh2ig7r7a52o0.gcdn.biz/ss/4108962/tn_7",
            "https://am38oja80gso26tq7ppsf2mpiqvh2ig7r7a52o0.gcdn.biz/ss/4108962/tn_8",
            "https://am38oja80gso26tq7ppsf2mpiqvh2ig7r7a52o0.gcdn.biz/ss/4108962/tn_9"
         ],
         "ctime" : "2013-12-26 12:20:53",
         "ss_urls" : [
            "https://am38oja80gso26tq7ppsf2mpiqvh2ig7r7a52o0.gcdn.biz/ss/4108962/1",
            "https://am38oja80gso26tq7ppsf2mpiqvh2ig7r7a52o0.gcdn.biz/ss/4108962/2",
            "https://am38oja80gso26tq7ppsf2mpiqvh2ig7r7a52o0.gcdn.biz/ss/4108962/3",
            "https://am38oja80gso26tq7ppsf2mpiqvh2ig7r7a52o0.gcdn.biz/ss/4108962/4",
            "https://am38oja80gso26tq7ppsf2mpiqvh2ig7r7a52o0.gcdn.biz/ss/4108962/5",
            "https://am38oja80gso26tq7ppsf2mpiqvh2ig7r7a52o0.gcdn.biz/ss/4108962/6",
            "https://am38oja80gso26tq7ppsf2mpiqvh2ig7r7a52o0.gcdn.biz/ss/4108962/7",
            "https://am38oja80gso26tq7ppsf2mpiqvh2ig7r7a52o0.gcdn.biz/ss/4108962/8",
            "https://am38oja80gso26tq7ppsf2mpiqvh2ig7r7a52o0.gcdn.biz/ss/4108962/9"
         ],
         "files_num_image" : "0",
         "ss_urls_tn_all" : "https://am38oja80gso26tq7ppsf2mpiqvh2ig7r7a52o0.gcdn.biz/ss/4108962/tn_all",
         "files_num_audio_player" : "0",
         "notes" : ""
      },
      {
         "url_pls" : "https://a08c72ephlr9e2nl2kbdbe5u5evh2ig7r7a52o0.gcdn.biz/pls/ZgnOQGZM1hxFcpP4ym88324sbsaEYchEIqu1peIoER9bN6Ytwe-XtA5xKmkEnl0sltQtNrU07UQlu-Qkx1uPDhDez97dGlw6vxFKB9nUUWA/Dating%20Rules%20From%20My%20Future%20Self%20-%20S02E03%20-%20Ruiner.mp4.xspf",
         "id_feeds" : "0",
         "is_linked" : "1",
         "url_page" : "https://www.furk.net/df/48b956c5fa2f34f0",
         "video_info" : "Duration: 00:08:04.28, start: 0.000000, bitrate: 1648 kb/s\n    Stream #0:0(und): Video: h264 (High) (avc1 / 0x31637661), yuv420p, 1280x720, 1454 kb/s, 29.97 fps, 29.97 tbr, 60k tbn, 59.94 tbc\n    Metadata:\n      creation_time   : 1970-01-01 00:00:00\n      handler_name    : VideoHandler\n    Stream #0:1(und): Audio: aac (mp4a / 0x6134706D), 44100 Hz, stereo, s16, 192 kb/s\n    Metadata:\n      creation_time   : 2012-08-07 15:43:15\n      handler_name    : IsoMedia File Produced by Google, 5-11-2011",
         "id" : "15177999108182432046",
         "ss_height" : "169",
         "id_labels" : [
            "5654220318654345890"
         ],
         "files_num_video_player" : "1",
         "name" : "Dating Rules From My Future Self - S02E03 - Ruiner.mp4",
         "is_ready" : "1",
         "url_dl" : "https://a08c72ephlr9e2nl2kbdbe5u5evh2ig7r7a52o0.gcdn.biz/d/r/ZgnOQGZM1hxFcpP4ym88324sbsaEYchEIqu1peIoER9bN6Ytwe-XtA5xKmkEnl0sltQtNrU07UQlu-Qkx1uPDhDez97dGlw6vxFKB9nUUWA/Dating%20Rules%20From%20My%20Future%20Self%20-%20S02E03%20-%20Ruiner.mp4",
         "media_proc_done" : "1",
         "ss_num" : "9",
         "files_num_video" : "1",
         "type" : "video",
         "info_hash" : "8DA68343246049908A074216E20A1C534EAC37A3",
         "av_time" : "0000-00-00 00:00:00",
         "status" : "",
         "av_result" : "error",
         "ss_width" : "300",
         "size" : "99815780",
         "av_info" : "",
         "files_num_audio" : "0",
         "ss_urls_tn" : [
            "https://a08c72ephlr9e2nl2kbdbe5u5evh2ig7r7a52o0.gcdn.biz/ss/4106668/tn_1",
            "https://a08c72ephlr9e2nl2kbdbe5u5evh2ig7r7a52o0.gcdn.biz/ss/4106668/tn_2",
            "https://a08c72ephlr9e2nl2kbdbe5u5evh2ig7r7a52o0.gcdn.biz/ss/4106668/tn_3",
            "https://a08c72ephlr9e2nl2kbdbe5u5evh2ig7r7a52o0.gcdn.biz/ss/4106668/tn_4",
            "https://a08c72ephlr9e2nl2kbdbe5u5evh2ig7r7a52o0.gcdn.biz/ss/4106668/tn_5",
            "https://a08c72ephlr9e2nl2kbdbe5u5evh2ig7r7a52o0.gcdn.biz/ss/4106668/tn_6",
            "https://a08c72ephlr9e2nl2kbdbe5u5evh2ig7r7a52o0.gcdn.biz/ss/4106668/tn_7",
            "https://a08c72ephlr9e2nl2kbdbe5u5evh2ig7r7a52o0.gcdn.biz/ss/4106668/tn_8",
            "https://a08c72ephlr9e2nl2kbdbe5u5evh2ig7r7a52o0.gcdn.biz/ss/4106668/tn_9"
         ],
         "ctime" : "2013-12-24 09:15:42",
         "ss_urls" : [
            "https://a08c72ephlr9e2nl2kbdbe5u5evh2ig7r7a52o0.gcdn.biz/ss/4106668/1",
            "https://a08c72ephlr9e2nl2kbdbe5u5evh2ig7r7a52o0.gcdn.biz/ss/4106668/2",
            "https://a08c72ephlr9e2nl2kbdbe5u5evh2ig7r7a52o0.gcdn.biz/ss/4106668/3",
            "https://a08c72ephlr9e2nl2kbdbe5u5evh2ig7r7a52o0.gcdn.biz/ss/4106668/4",
            "https://a08c72ephlr9e2nl2kbdbe5u5evh2ig7r7a52o0.gcdn.biz/ss/4106668/5",
            "https://a08c72ephlr9e2nl2kbdbe5u5evh2ig7r7a52o0.gcdn.biz/ss/4106668/6",
            "https://a08c72ephlr9e2nl2kbdbe5u5evh2ig7r7a52o0.gcdn.biz/ss/4106668/7",
            "https://a08c72ephlr9e2nl2kbdbe5u5evh2ig7r7a52o0.gcdn.biz/ss/4106668/8",
            "https://a08c72ephlr9e2nl2kbdbe5u5evh2ig7r7a52o0.gcdn.biz/ss/4106668/9"
         ],
         "files_num_image" : "0",
         "ss_urls_tn_all" : "https://a08c72ephlr9e2nl2kbdbe5u5evh2ig7r7a52o0.gcdn.biz/ss/4106668/tn_all",
         "files_num_audio_player" : "0",
         "notes" : ""
      },
      {
         "url_pls" : "https://sfdg8jo3ijckjbobgjiuqu1v0avh2ig7r7a52o0.gcdn.biz/pls/UrcWMdKbQj9FcpP4ym883943it7zaK7FIqu1peIoER9bN6Ytwe-XtKHkuktbQYnfMo1qubYl-b8lu-Qkx1uPDhDez97dGlw6vxFKB9nUUWA/Dating.Rules.From.My.Future.Self.S02E02.720p.WEB-NOGRP.mp4.xspf",
         "id_feeds" : "0",
         "is_linked" : "1",
         "url_page" : "https://www.furk.net/df/247bebba540c96a0",
         "video_info" : "Duration: 00:06:54.08, start: 0.000000, bitrate: 1831 kb/s\n    Stream #0:0(und): Video: h264 (High) (avc1 / 0x31637661), yuv420p, 1280x720, 1636 kb/s, 29.97 fps, 29.97 tbr, 60k tbn, 59.94 tbc\n    Metadata:\n      creation_time   : 1970-01-01 00:00:00\n      handler_name    : VideoHandler\n    Stream #0:1(und): Audio: aac (mp4a / 0x6134706D), 44100 Hz, stereo, s16, 192 kb/s\n    Metadata:\n      creation_time   : 2012-08-05 16:21:32\n      handler_name    : IsoMedia File Produced by Google, 5-11-2011",
         "id" : "3248864119030756742",
         "ss_height" : "169",
         "id_labels" : [],
         "files_num_video_player" : "1",
         "name" : "Dating.Rules.From.My.Future.Self.S02E02.720p.WEB-NOGRP.mp4",
         "is_ready" : "1",
         "url_dl" : "https://sfdg8jo3ijckjbobgjiuqu1v0avh2ig7r7a52o0.gcdn.biz/d/r/UrcWMdKbQj9FcpP4ym883943it7zaK7FIqu1peIoER9bN6Ytwe-XtKHkuktbQYnfMo1qubYl-b8lu-Qkx1uPDhDez97dGlw6vxFKB9nUUWA/Dating.Rules.From.My.Future.Self.S02E02.720p.WEB-NOGRP.mp4",
         "media_proc_done" : "1",
         "ss_num" : "9",
         "files_num_video" : "1",
         "type" : "video",
         "info_hash" : "1EB89C18C0E39758C2EC889DE4AF6B86D70227C7",
         "av_time" : "0000-00-00 00:00:00",
         "status" : "",
         "av_result" : "error",
         "ss_width" : "300",
         "size" : "94772982",
         "av_info" : "",
         "files_num_audio" : "0",
         "ss_urls_tn" : [
            "https://sfdg8jo3ijckjbobgjiuqu1v0avh2ig7r7a52o0.gcdn.biz/ss/4106661/tn_1",
            "https://sfdg8jo3ijckjbobgjiuqu1v0avh2ig7r7a52o0.gcdn.biz/ss/4106661/tn_2",
            "https://sfdg8jo3ijckjbobgjiuqu1v0avh2ig7r7a52o0.gcdn.biz/ss/4106661/tn_3",
            "https://sfdg8jo3ijckjbobgjiuqu1v0avh2ig7r7a52o0.gcdn.biz/ss/4106661/tn_4",
            "https://sfdg8jo3ijckjbobgjiuqu1v0avh2ig7r7a52o0.gcdn.biz/ss/4106661/tn_5",
            "https://sfdg8jo3ijckjbobgjiuqu1v0avh2ig7r7a52o0.gcdn.biz/ss/4106661/tn_6",
            "https://sfdg8jo3ijckjbobgjiuqu1v0avh2ig7r7a52o0.gcdn.biz/ss/4106661/tn_7",
            "https://sfdg8jo3ijckjbobgjiuqu1v0avh2ig7r7a52o0.gcdn.biz/ss/4106661/tn_8",
            "https://sfdg8jo3ijckjbobgjiuqu1v0avh2ig7r7a52o0.gcdn.biz/ss/4106661/tn_9"
         ],
         "ctime" : "2013-12-23 20:24:46",
         "ss_urls" : [
            "https://sfdg8jo3ijckjbobgjiuqu1v0avh2ig7r7a52o0.gcdn.biz/ss/4106661/1",
            "https://sfdg8jo3ijckjbobgjiuqu1v0avh2ig7r7a52o0.gcdn.biz/ss/4106661/2",
            "https://sfdg8jo3ijckjbobgjiuqu1v0avh2ig7r7a52o0.gcdn.biz/ss/4106661/3",
            "https://sfdg8jo3ijckjbobgjiuqu1v0avh2ig7r7a52o0.gcdn.biz/ss/4106661/4",
            "https://sfdg8jo3ijckjbobgjiuqu1v0avh2ig7r7a52o0.gcdn.biz/ss/4106661/5",
            "https://sfdg8jo3ijckjbobgjiuqu1v0avh2ig7r7a52o0.gcdn.biz/ss/4106661/6",
            "https://sfdg8jo3ijckjbobgjiuqu1v0avh2ig7r7a52o0.gcdn.biz/ss/4106661/7",
            "https://sfdg8jo3ijckjbobgjiuqu1v0avh2ig7r7a52o0.gcdn.biz/ss/4106661/8",
            "https://sfdg8jo3ijckjbobgjiuqu1v0avh2ig7r7a52o0.gcdn.biz/ss/4106661/9"
         ],
         "files_num_image" : "0",
         "ss_urls_tn_all" : "https://sfdg8jo3ijckjbobgjiuqu1v0avh2ig7r7a52o0.gcdn.biz/ss/4106661/tn_all",
         "files_num_audio_player" : "0",
         "notes" : ""
      },
      {
         "url_pls" : "https://u1pqohu6dmjnigb5e7gv04oabevh2ig7r7a52o0.gcdn.biz/pls/-xlec40C5Q6WvWEpr5W0lir2owzMKfrC43Q-BxRgH4mwRCk0eWSkm9I8PJVefMy5aKU0fc-1x1Elu-Qkx1uPDhDez97dGlw6vxFKB9nUUWA/Dating.Rules.From.My.Future.Self.S02E04.720p.WEB-NOGRP.mp4.xspf",
         "id_feeds" : "0",
         "is_linked" : "1",
         "url_page" : "https://www.furk.net/df/237c03af8f5a927d",
         "video_info" : "Duration: 00:07:53.47, start: 0.000000, bitrate: 1741 kb/s\n    Stream #0:0(und): Video: h264 (High) (avc1 / 0x31637661), yuv420p, 1280x720, 1546 kb/s, 29.97 fps, 29.97 tbr, 60k tbn, 59.94 tbc\n    Metadata:\n      creation_time   : 1970-01-01 00:00:00\n      handler_name    : VideoHandler\n    Stream #0:1(und): Audio: aac (mp4a / 0x6134706D), 44100 Hz, stereo, s16, 192 kb/s\n    Metadata:\n      creation_time   : 2012-08-12 15:11:10\n      handler_name    : IsoMedia File Produced by Google, 5-11-2011",
         "id" : "18311649600607284357",
         "ss_height" : "169",
         "id_labels" : [],
         "files_num_video_player" : "1",
         "name" : "Dating.Rules.From.My.Future.Self.S02E04.720p.WEB-NOGRP.mp4",
         "is_ready" : "1",
         "url_dl" : "https://u1pqohu6dmjnigb5e7gv04oabevh2ig7r7a52o0.gcdn.biz/d/r/-xlec40C5Q6WvWEpr5W0lir2owzMKfrC43Q-BxRgH4mwRCk0eWSkm9I8PJVefMy5aKU0fc-1x1Elu-Qkx1uPDhDez97dGlw6vxFKB9nUUWA/Dating.Rules.From.My.Future.Self.S02E04.720p.WEB-NOGRP.mp4",
         "media_proc_done" : "1",
         "ss_num" : "9",
         "files_num_video" : "1",
         "type" : "video",
         "info_hash" : "6543AA4C16DA40124AAC4E75B3053E59F108D59B",
         "av_time" : "0000-00-00 00:00:00",
         "status" : "",
         "av_result" : "error",
         "ss_width" : "300",
         "size" : "103053918",
         "av_info" : "",
         "files_num_audio" : "0",
         "ss_urls_tn" : [
            "https://u1pqohu6dmjnigb5e7gv04oabevh2ig7r7a52o0.gcdn.biz/ss/2887899/tn_1",
            "https://u1pqohu6dmjnigb5e7gv04oabevh2ig7r7a52o0.gcdn.biz/ss/2887899/tn_2",
            "https://u1pqohu6dmjnigb5e7gv04oabevh2ig7r7a52o0.gcdn.biz/ss/2887899/tn_3",
            "https://u1pqohu6dmjnigb5e7gv04oabevh2ig7r7a52o0.gcdn.biz/ss/2887899/tn_4",
            "https://u1pqohu6dmjnigb5e7gv04oabevh2ig7r7a52o0.gcdn.biz/ss/2887899/tn_5",
            "https://u1pqohu6dmjnigb5e7gv04oabevh2ig7r7a52o0.gcdn.biz/ss/2887899/tn_6",
            "https://u1pqohu6dmjnigb5e7gv04oabevh2ig7r7a52o0.gcdn.biz/ss/2887899/tn_7",
            "https://u1pqohu6dmjnigb5e7gv04oabevh2ig7r7a52o0.gcdn.biz/ss/2887899/tn_8",
            "https://u1pqohu6dmjnigb5e7gv04oabevh2ig7r7a52o0.gcdn.biz/ss/2887899/tn_9"
         ],
         "ctime" : "2013-12-23 20:14:59",
         "ss_urls" : [
            "https://u1pqohu6dmjnigb5e7gv04oabevh2ig7r7a52o0.gcdn.biz/ss/2887899/1",
            "https://u1pqohu6dmjnigb5e7gv04oabevh2ig7r7a52o0.gcdn.biz/ss/2887899/2",
            "https://u1pqohu6dmjnigb5e7gv04oabevh2ig7r7a52o0.gcdn.biz/ss/2887899/3",
            "https://u1pqohu6dmjnigb5e7gv04oabevh2ig7r7a52o0.gcdn.biz/ss/2887899/4",
            "https://u1pqohu6dmjnigb5e7gv04oabevh2ig7r7a52o0.gcdn.biz/ss/2887899/5",
            "https://u1pqohu6dmjnigb5e7gv04oabevh2ig7r7a52o0.gcdn.biz/ss/2887899/6",
            "https://u1pqohu6dmjnigb5e7gv04oabevh2ig7r7a52o0.gcdn.biz/ss/2887899/7",
            "https://u1pqohu6dmjnigb5e7gv04oabevh2ig7r7a52o0.gcdn.biz/ss/2887899/8",
            "https://u1pqohu6dmjnigb5e7gv04oabevh2ig7r7a52o0.gcdn.biz/ss/2887899/9"
         ],
         "files_num_image" : "0",
         "ss_urls_tn_all" : "https://u1pqohu6dmjnigb5e7gv04oabevh2ig7r7a52o0.gcdn.biz/ss/2887899/tn_all",
         "files_num_audio_player" : "0",
         "notes" : ""
      },
      {
         "url_pls" : "https://am38oja80gso26tq7ppsf2mpiqvh2ig7r7a52o0.gcdn.biz/pls/4WI5zvHgxlBFcpP4ym883wcIW6MmrzdYIqu1peIoER9bN6Ytwe-XtKX83XZ16D_aFVLlUGwXj_Mlu-Qkx1uPDhDez97dGlw6vxFKB9nUUWA/Dating.Rules.From.My.Future.Self.S02E05.720p.WEB-NOGRP.mp4.xspf",
         "id_feeds" : "0",
         "is_linked" : "1",
         "url_page" : "https://www.furk.net/df/8894787ec34299d3",
         "video_info" : "Duration: 00:07:03.72, start: 0.000000, bitrate: 1723 kb/s\n    Stream #0:0(und): Video: h264 (High) (avc1 / 0x31637661), yuv420p, 1280x720, 1528 kb/s, 29.97 fps, 29.97 tbr, 60k tbn, 59.94 tbc\n    Metadata:\n      creation_time   : 1970-01-01 00:00:00\n      handler_name    : VideoHandler\n    Stream #0:1(und): Audio: aac (mp4a / 0x6134706D), 44100 Hz, stereo, s16, 192 kb/s\n    Metadata:\n      creation_time   : 2012-08-14 15:34:52\n      handler_name    : IsoMedia File Produced by Google, 5-11-2011",
         "id" : "7599732334624819654",
         "ss_height" : "169",
         "id_labels" : [],
         "files_num_video_player" : "1",
         "name" : "Dating.Rules.From.My.Future.Self.S02E05.720p.WEB-NOGRP.mp4",
         "is_ready" : "1",
         "url_dl" : "https://am38oja80gso26tq7ppsf2mpiqvh2ig7r7a52o0.gcdn.biz/d/r/4WI5zvHgxlBFcpP4ym883wcIW6MmrzdYIqu1peIoER9bN6Ytwe-XtKX83XZ16D_aFVLlUGwXj_Mlu-Qkx1uPDhDez97dGlw6vxFKB9nUUWA/Dating.Rules.From.My.Future.Self.S02E05.720p.WEB-NOGRP.mp4",
         "media_proc_done" : "1",
         "ss_num" : "9",
         "files_num_video" : "1",
         "type" : "video",
         "info_hash" : "1872D5CD356B77B45037377A1D25BF3F6934449C",
         "av_time" : "0000-00-00 00:00:00",
         "status" : "",
         "av_result" : "error",
         "ss_width" : "300",
         "size" : "91278701",
         "av_info" : "",
         "files_num_audio" : "0",
         "ss_urls_tn" : [
            "https://am38oja80gso26tq7ppsf2mpiqvh2ig7r7a52o0.gcdn.biz/ss/4106648/tn_1",
            "https://am38oja80gso26tq7ppsf2mpiqvh2ig7r7a52o0.gcdn.biz/ss/4106648/tn_2",
            "https://am38oja80gso26tq7ppsf2mpiqvh2ig7r7a52o0.gcdn.biz/ss/4106648/tn_3",
            "https://am38oja80gso26tq7ppsf2mpiqvh2ig7r7a52o0.gcdn.biz/ss/4106648/tn_4",
            "https://am38oja80gso26tq7ppsf2mpiqvh2ig7r7a52o0.gcdn.biz/ss/4106648/tn_5",
            "https://am38oja80gso26tq7ppsf2mpiqvh2ig7r7a52o0.gcdn.biz/ss/4106648/tn_6",
            "https://am38oja80gso26tq7ppsf2mpiqvh2ig7r7a52o0.gcdn.biz/ss/4106648/tn_7",
            "https://am38oja80gso26tq7ppsf2mpiqvh2ig7r7a52o0.gcdn.biz/ss/4106648/tn_8",
            "https://am38oja80gso26tq7ppsf2mpiqvh2ig7r7a52o0.gcdn.biz/ss/4106648/tn_9"
         ],
         "ctime" : "2013-12-23 20:14:02",
         "ss_urls" : [
            "https://am38oja80gso26tq7ppsf2mpiqvh2ig7r7a52o0.gcdn.biz/ss/4106648/1",
            "https://am38oja80gso26tq7ppsf2mpiqvh2ig7r7a52o0.gcdn.biz/ss/4106648/2",
            "https://am38oja80gso26tq7ppsf2mpiqvh2ig7r7a52o0.gcdn.biz/ss/4106648/3",
            "https://am38oja80gso26tq7ppsf2mpiqvh2ig7r7a52o0.gcdn.biz/ss/4106648/4",
            "https://am38oja80gso26tq7ppsf2mpiqvh2ig7r7a52o0.gcdn.biz/ss/4106648/5",
            "https://am38oja80gso26tq7ppsf2mpiqvh2ig7r7a52o0.gcdn.biz/ss/4106648/6",
            "https://am38oja80gso26tq7ppsf2mpiqvh2ig7r7a52o0.gcdn.biz/ss/4106648/7",
            "https://am38oja80gso26tq7ppsf2mpiqvh2ig7r7a52o0.gcdn.biz/ss/4106648/8",
            "https://am38oja80gso26tq7ppsf2mpiqvh2ig7r7a52o0.gcdn.biz/ss/4106648/9"
         ],
         "files_num_image" : "0",
         "ss_urls_tn_all" : "https://am38oja80gso26tq7ppsf2mpiqvh2ig7r7a52o0.gcdn.biz/ss/4106648/tn_all",
         "files_num_audio_player" : "0",
         "notes" : ""
      },
      {
         "url_pls" : "https://vb9ee295km44hqj1fkev827b4mvh2ig7r7a52o0.gcdn.biz/pls/7p7yYwgAyBU0tBOu1mlfF6tVjNGCCafJ43Q-BxRgH4mwRCk0eWSkm307DGOqd3ZCwJOw2CzVxEclu-Qkx1uPDhDez97dGlw6vxFKB9nUUWA/Dating.Rules.From.My.Future.Self.S02E01.720p.WEB-NOGRP.mp4.xspf",
         "id_feeds" : "0",
         "is_linked" : "1",
         "url_page" : "https://www.furk.net/df/27540e55351d2619",
         "video_info" : "Duration: 00:09:14.08, start: 0.000000, bitrate: 1811 kb/s\n    Stream #0:0(und): Video: h264 (High) (avc1 / 0x31637661), yuv420p, 1280x720, 1617 kb/s, 29.97 fps, 29.97 tbr, 60k tbn, 59.94 tbc\n    Metadata:\n      creation_time   : 1970-01-01 00:00:00\n      handler_name    : VideoHandler\n    Stream #0:1(und): Audio: aac (mp4a / 0x6134706D), 44100 Hz, stereo, s16, 192 kb/s\n    Metadata:\n      creation_time   : 2012-07-31 18:18:56\n      handler_name    : IsoMedia File Produced by Google, 5-11-2011",
         "id" : "7036330875565773745",
         "ss_height" : "169",
         "id_labels" : [],
         "files_num_video_player" : "1",
         "name" : "Dating.Rules.From.My.Future.Self.S02E01.720p.WEB-NOGRP.mp4",
         "is_ready" : "1",
         "url_dl" : "https://vb9ee295km44hqj1fkev827b4mvh2ig7r7a52o0.gcdn.biz/d/r/7p7yYwgAyBU0tBOu1mlfF6tVjNGCCafJ43Q-BxRgH4mwRCk0eWSkm307DGOqd3ZCwJOw2CzVxEclu-Qkx1uPDhDez97dGlw6vxFKB9nUUWA/Dating.Rules.From.My.Future.Self.S02E01.720p.WEB-NOGRP.mp4",
         "media_proc_done" : "1",
         "ss_num" : "9",
         "files_num_video" : "1",
         "type" : "video",
         "info_hash" : "B757E418381589AE31B9FDE2D24248E50F3F0FA8",
         "av_time" : "0000-00-00 00:00:00",
         "status" : "",
         "av_result" : "error",
         "ss_width" : "300",
         "size" : "125477733",
         "av_info" : "",
         "files_num_audio" : "0",
         "ss_urls_tn" : [
            "https://vb9ee295km44hqj1fkev827b4mvh2ig7r7a52o0.gcdn.biz/ss/4106586/tn_1",
            "https://vb9ee295km44hqj1fkev827b4mvh2ig7r7a52o0.gcdn.biz/ss/4106586/tn_2",
            "https://vb9ee295km44hqj1fkev827b4mvh2ig7r7a52o0.gcdn.biz/ss/4106586/tn_3",
            "https://vb9ee295km44hqj1fkev827b4mvh2ig7r7a52o0.gcdn.biz/ss/4106586/tn_4",
            "https://vb9ee295km44hqj1fkev827b4mvh2ig7r7a52o0.gcdn.biz/ss/4106586/tn_5",
            "https://vb9ee295km44hqj1fkev827b4mvh2ig7r7a52o0.gcdn.biz/ss/4106586/tn_6",
            "https://vb9ee295km44hqj1fkev827b4mvh2ig7r7a52o0.gcdn.biz/ss/4106586/tn_7",
            "https://vb9ee295km44hqj1fkev827b4mvh2ig7r7a52o0.gcdn.biz/ss/4106586/tn_8",
            "https://vb9ee295km44hqj1fkev827b4mvh2ig7r7a52o0.gcdn.biz/ss/4106586/tn_9"
         ],
         "ctime" : "2013-12-23 19:06:12",
         "ss_urls" : [
            "https://vb9ee295km44hqj1fkev827b4mvh2ig7r7a52o0.gcdn.biz/ss/4106586/1",
            "https://vb9ee295km44hqj1fkev827b4mvh2ig7r7a52o0.gcdn.biz/ss/4106586/2",
            "https://vb9ee295km44hqj1fkev827b4mvh2ig7r7a52o0.gcdn.biz/ss/4106586/3",
            "https://vb9ee295km44hqj1fkev827b4mvh2ig7r7a52o0.gcdn.biz/ss/4106586/4",
            "https://vb9ee295km44hqj1fkev827b4mvh2ig7r7a52o0.gcdn.biz/ss/4106586/5",
            "https://vb9ee295km44hqj1fkev827b4mvh2ig7r7a52o0.gcdn.biz/ss/4106586/6",
            "https://vb9ee295km44hqj1fkev827b4mvh2ig7r7a52o0.gcdn.biz/ss/4106586/7",
            "https://vb9ee295km44hqj1fkev827b4mvh2ig7r7a52o0.gcdn.biz/ss/4106586/8",
            "https://vb9ee295km44hqj1fkev827b4mvh2ig7r7a52o0.gcdn.biz/ss/4106586/9"
         ],
         "files_num_image" : "0",
         "ss_urls_tn_all" : "https://vb9ee295km44hqj1fkev827b4mvh2ig7r7a52o0.gcdn.biz/ss/4106586/tn_all",
         "files_num_audio_player" : "0",
         "notes" : ""
      },
      {
         "url_pls" : "https://u1pqohu6dmjnigb5e7gv04oabevh2ig7r7a52o0.gcdn.biz/pls/4WI5zvHgxlA0tBOu1mlfF31YgGABtbBT43Q-BxRgH4mwRCk0eWSkm-SxymUmoJdJ0Bz2qkLQtRUlu-Qkx1uPDhDez97dGlw6vxFKB9nUUWA/DATING%20RULES.xspf",
         "id_feeds" : "0",
         "is_linked" : "1",
         "url_page" : "https://www.furk.net/df/c4cec901ba67d46b",
         "video_info" : "Duration: 00:09:32.28, start: 0.000000, bitrate: 2090 kb/s\n    Stream #0:0(und): Video: h264 (High) (avc1 / 0x31637661), yuv420p, 1280x720, 1944 kb/s, 23.98 fps, 23.98 tbr, 48k tbn, 47.95 tbc\n    Metadata:\n      creation_time   : 1970-01-01 00:00:00\n      handler_name    : VideoHandler\n    Stream #0:1(und): Audio: aac (mp4a / 0x6134706D), 44100 Hz, stereo, s16, 143 kb/s\n    Metadata:\n      creation_time   : 2012-01-05 20:10:49\n      handler_name    : IsoMedia File Produced by Google, 5-11-2011",
         "id" : "15281452041575385503",
         "ss_height" : "169",
         "id_labels" : [],
         "files_num_video_player" : "9",
         "name" : "DATING RULES",
         "is_ready" : "1",
         "url_dl" : "https://u1pqohu6dmjnigb5e7gv04oabevh2ig7r7a52o0.gcdn.biz/d/r/4WI5zvHgxlA0tBOu1mlfF31YgGABtbBT43Q-BxRgH4mwRCk0eWSkm-SxymUmoJdJ0Bz2qkLQtRUlu-Qkx1uPDhDez97dGlw6vxFKB9nUUWA/DATING%20RULES",
         "media_proc_done" : "1",
         "ss_num" : "9",
         "files_num_video" : "9",
         "type" : "video",
         "info_hash" : "34D0D93FF836603F2C2A9F5F2DB8C98345EBA749",
         "av_time" : "0000-00-00 00:00:00",
         "status" : "",
         "av_result" : "error",
         "ss_width" : "300",
         "size" : "899861145",
         "av_info" : "",
         "files_num_audio" : "0",
         "ss_urls_tn" : [
            "https://u1pqohu6dmjnigb5e7gv04oabevh2ig7r7a52o0.gcdn.biz/ss/4106472/tn_1",
            "https://u1pqohu6dmjnigb5e7gv04oabevh2ig7r7a52o0.gcdn.biz/ss/4106472/tn_2",
            "https://u1pqohu6dmjnigb5e7gv04oabevh2ig7r7a52o0.gcdn.biz/ss/4106472/tn_3",
            "https://u1pqohu6dmjnigb5e7gv04oabevh2ig7r7a52o0.gcdn.biz/ss/4106472/tn_4",
            "https://u1pqohu6dmjnigb5e7gv04oabevh2ig7r7a52o0.gcdn.biz/ss/4106472/tn_5",
            "https://u1pqohu6dmjnigb5e7gv04oabevh2ig7r7a52o0.gcdn.biz/ss/4106472/tn_6",
            "https://u1pqohu6dmjnigb5e7gv04oabevh2ig7r7a52o0.gcdn.biz/ss/4106472/tn_7",
            "https://u1pqohu6dmjnigb5e7gv04oabevh2ig7r7a52o0.gcdn.biz/ss/4106472/tn_8",
            "https://u1pqohu6dmjnigb5e7gv04oabevh2ig7r7a52o0.gcdn.biz/ss/4106472/tn_9"
         ],
         "ctime" : "2013-12-23 17:26:41",
         "ss_urls" : [
            "https://u1pqohu6dmjnigb5e7gv04oabevh2ig7r7a52o0.gcdn.biz/ss/4106472/1",
            "https://u1pqohu6dmjnigb5e7gv04oabevh2ig7r7a52o0.gcdn.biz/ss/4106472/2",
            "https://u1pqohu6dmjnigb5e7gv04oabevh2ig7r7a52o0.gcdn.biz/ss/4106472/3",
            "https://u1pqohu6dmjnigb5e7gv04oabevh2ig7r7a52o0.gcdn.biz/ss/4106472/4",
            "https://u1pqohu6dmjnigb5e7gv04oabevh2ig7r7a52o0.gcdn.biz/ss/4106472/5",
            "https://u1pqohu6dmjnigb5e7gv04oabevh2ig7r7a52o0.gcdn.biz/ss/4106472/6",
            "https://u1pqohu6dmjnigb5e7gv04oabevh2ig7r7a52o0.gcdn.biz/ss/4106472/7",
            "https://u1pqohu6dmjnigb5e7gv04oabevh2ig7r7a52o0.gcdn.biz/ss/4106472/8",
            "https://u1pqohu6dmjnigb5e7gv04oabevh2ig7r7a52o0.gcdn.biz/ss/4106472/9"
         ],
         "files_num_image" : "0",
         "ss_urls_tn_all" : "https://u1pqohu6dmjnigb5e7gv04oabevh2ig7r7a52o0.gcdn.biz/ss/4106472/tn_all",
         "files_num_audio_player" : "0",
         "notes" : ""
      },
      {
         "url_pls" : "https://vb9ee295km44hqj1fkev827b4mvh2ig7r7a52o0.gcdn.biz/pls/FjhlGXpMNPiRoBvGgeTfPdVh2fyxkBAa43Q-BxRgH4mwRCk0eWSkm4yr5xu5vyJdo9nFsAMhsRclu-Qkx1uPDhDez97dGlw6vxFKB9nUUWA/Casanova%202005%20720p%20BluRay%20x264.xspf",
         "id_feeds" : "0",
         "is_linked" : "1",
         "url_page" : "https://www.furk.net/df/ad48b14e3251518b",
         "video_info" : "Duration: 01:51:36.83, start: 0.000000, bitrate: 1103 kb/s\n    Stream #0:0(und): Video: h264 (High) (avc1 / 0x31637661), yuv420p, 1280x544 [SAR 1:1 DAR 40:17], 999 kb/s, 23.98 fps, 23.98 tbr, 24k tbn, 47.95 tbc\n    Metadata:\n      creation_time   : 2013-09-09 22:08:31\n      handler_name    : GAnGSteR\n    Stream #0:1(eng): Audio: aac (mp4a / 0x6134706D), 48000 Hz, stereo, s16, 99 kb/s\n    Metadata:\n      creation_time   : 2013-09-10 03:15:00\n      handler_name    : GAnGSteR",
         "id" : "10528154797474471402",
         "ss_height" : "128",
         "id_labels" : [],
         "files_num_video_player" : "1",
         "name" : "Casanova 2005 720p BluRay x264",
         "is_ready" : "1",
         "url_dl" : "https://vb9ee295km44hqj1fkev827b4mvh2ig7r7a52o0.gcdn.biz/d/r/FjhlGXpMNPiRoBvGgeTfPdVh2fyxkBAa43Q-BxRgH4mwRCk0eWSkm4yr5xu5vyJdo9nFsAMhsRclu-Qkx1uPDhDez97dGlw6vxFKB9nUUWA/Casanova%202005%20720p%20BluRay%20x264",
         "media_proc_done" : "1",
         "ss_num" : "9",
         "files_num_video" : "1",
         "type" : "video",
         "info_hash" : "467598F1EA690740F47AA603B8EEBCEBA2423451",
         "av_time" : "0000-00-00 00:00:00",
         "status" : "",
         "av_result" : "error",
         "ss_width" : "300",
         "size" : "924051800",
         "av_info" : "",
         "files_num_audio" : "0",
         "ss_urls_tn" : [
            "https://vb9ee295km44hqj1fkev827b4mvh2ig7r7a52o0.gcdn.biz/ss/3936902/tn_1",
            "https://vb9ee295km44hqj1fkev827b4mvh2ig7r7a52o0.gcdn.biz/ss/3936902/tn_2",
            "https://vb9ee295km44hqj1fkev827b4mvh2ig7r7a52o0.gcdn.biz/ss/3936902/tn_3",
            "https://vb9ee295km44hqj1fkev827b4mvh2ig7r7a52o0.gcdn.biz/ss/3936902/tn_4",
            "https://vb9ee295km44hqj1fkev827b4mvh2ig7r7a52o0.gcdn.biz/ss/3936902/tn_5",
            "https://vb9ee295km44hqj1fkev827b4mvh2ig7r7a52o0.gcdn.biz/ss/3936902/tn_6",
            "https://vb9ee295km44hqj1fkev827b4mvh2ig7r7a52o0.gcdn.biz/ss/3936902/tn_7",
            "https://vb9ee295km44hqj1fkev827b4mvh2ig7r7a52o0.gcdn.biz/ss/3936902/tn_8",
            "https://vb9ee295km44hqj1fkev827b4mvh2ig7r7a52o0.gcdn.biz/ss/3936902/tn_9"
         ],
         "ctime" : "2013-12-20 03:12:18",
         "ss_urls" : [
            "https://vb9ee295km44hqj1fkev827b4mvh2ig7r7a52o0.gcdn.biz/ss/3936902/1",
            "https://vb9ee295km44hqj1fkev827b4mvh2ig7r7a52o0.gcdn.biz/ss/3936902/2",
            "https://vb9ee295km44hqj1fkev827b4mvh2ig7r7a52o0.gcdn.biz/ss/3936902/3",
            "https://vb9ee295km44hqj1fkev827b4mvh2ig7r7a52o0.gcdn.biz/ss/3936902/4",
            "https://vb9ee295km44hqj1fkev827b4mvh2ig7r7a52o0.gcdn.biz/ss/3936902/5",
            "https://vb9ee295km44hqj1fkev827b4mvh2ig7r7a52o0.gcdn.biz/ss/3936902/6",
            "https://vb9ee295km44hqj1fkev827b4mvh2ig7r7a52o0.gcdn.biz/ss/3936902/7",
            "https://vb9ee295km44hqj1fkev827b4mvh2ig7r7a52o0.gcdn.biz/ss/3936902/8",
            "https://vb9ee295km44hqj1fkev827b4mvh2ig7r7a52o0.gcdn.biz/ss/3936902/9"
         ],
         "files_num_image" : "1",
         "ss_urls_tn_all" : "https://vb9ee295km44hqj1fkev827b4mvh2ig7r7a52o0.gcdn.biz/ss/3936902/tn_all",
         "files_num_audio_player" : "0",
         "notes" : ""
      },
      {
         "url_pls" : "https://am38oja80gso26tq7ppsf2mpiqvh2ig7r7a52o0.gcdn.biz/pls/mB_osKsNYXORoBvGgeTfPYqsxBwHmFDr43Q-BxRgH4mwRCk0eWSkm4eJ814xVKJQwFmaaycAlj8lu-Qkx1uPDhDez97dGlw6vxFKB9nUUWA/Phineas.And.Ferb.Mission.Marvel.2013.DVDRip.XviD-AQOS.xspf",
         "id_feeds" : "0",
         "is_linked" : "1",
         "url_page" : "https://www.furk.net/df/e4f9861accac4bdf",
         "video_info" : "Duration: 00:44:03.34, start: 0.000000, bitrate: 1817 kb/s\n    Stream #0:0: Video: mpeg4 (Advanced Simple Profile) (XVID / 0x44495658), yuv420p, 720x384 [SAR 1:1 DAR 15:8], 23.98 tbr, 23.98 tbn, 23.98 tbc\n    Stream #0:1: Audio: mp3 (U[0][0][0] / 0x0055), 48000 Hz, stereo, s16, 121 kb/s\n    Metadata:\n      title           : VTS_01_1 T80 2_0ch 192Kbps DELAY 0ms",
         "id" : "14672122498980204156",
         "ss_height" : "160",
         "id_labels" : [],
         "files_num_video_player" : "0",
         "name" : "Phineas.And.Ferb.Mission.Marvel.2013.DVDRip.XviD-AQOS",
         "is_ready" : "1",
         "url_dl" : "https://am38oja80gso26tq7ppsf2mpiqvh2ig7r7a52o0.gcdn.biz/d/r/mB_osKsNYXORoBvGgeTfPYqsxBwHmFDr43Q-BxRgH4mwRCk0eWSkm4eJ814xVKJQwFmaaycAlj8lu-Qkx1uPDhDez97dGlw6vxFKB9nUUWA/Phineas.And.Ferb.Mission.Marvel.2013.DVDRip.XviD-AQOS",
         "media_proc_done" : "1",
         "ss_num" : "9",
         "files_num_video" : "1",
         "type" : "video",
         "info_hash" : "22A61C2C463480FEA9A71BC53F145F152DE40372",
         "av_time" : "0000-00-00 00:00:00",
         "status" : "",
         "av_result" : "error",
         "ss_width" : "300",
         "size" : "612990110",
         "av_info" : "",
         "files_num_audio" : "0",
         "ss_urls_tn" : [
            "https://am38oja80gso26tq7ppsf2mpiqvh2ig7r7a52o0.gcdn.biz/ss/3925437/tn_1",
            "https://am38oja80gso26tq7ppsf2mpiqvh2ig7r7a52o0.gcdn.biz/ss/3925437/tn_2",
            "https://am38oja80gso26tq7ppsf2mpiqvh2ig7r7a52o0.gcdn.biz/ss/3925437/tn_3",
            "https://am38oja80gso26tq7ppsf2mpiqvh2ig7r7a52o0.gcdn.biz/ss/3925437/tn_4",
            "https://am38oja80gso26tq7ppsf2mpiqvh2ig7r7a52o0.gcdn.biz/ss/3925437/tn_5",
            "https://am38oja80gso26tq7ppsf2mpiqvh2ig7r7a52o0.gcdn.biz/ss/3925437/tn_6",
            "https://am38oja80gso26tq7ppsf2mpiqvh2ig7r7a52o0.gcdn.biz/ss/3925437/tn_7",
            "https://am38oja80gso26tq7ppsf2mpiqvh2ig7r7a52o0.gcdn.biz/ss/3925437/tn_8",
            "https://am38oja80gso26tq7ppsf2mpiqvh2ig7r7a52o0.gcdn.biz/ss/3925437/tn_9"
         ],
         "ctime" : "2013-12-19 17:48:28",
         "ss_urls" : [
            "https://am38oja80gso26tq7ppsf2mpiqvh2ig7r7a52o0.gcdn.biz/ss/3925437/1",
            "https://am38oja80gso26tq7ppsf2mpiqvh2ig7r7a52o0.gcdn.biz/ss/3925437/2",
            "https://am38oja80gso26tq7ppsf2mpiqvh2ig7r7a52o0.gcdn.biz/ss/3925437/3",
            "https://am38oja80gso26tq7ppsf2mpiqvh2ig7r7a52o0.gcdn.biz/ss/3925437/4",
            "https://am38oja80gso26tq7ppsf2mpiqvh2ig7r7a52o0.gcdn.biz/ss/3925437/5",
            "https://am38oja80gso26tq7ppsf2mpiqvh2ig7r7a52o0.gcdn.biz/ss/3925437/6",
            "https://am38oja80gso26tq7ppsf2mpiqvh2ig7r7a52o0.gcdn.biz/ss/3925437/7",
            "https://am38oja80gso26tq7ppsf2mpiqvh2ig7r7a52o0.gcdn.biz/ss/3925437/8",
            "https://am38oja80gso26tq7ppsf2mpiqvh2ig7r7a52o0.gcdn.biz/ss/3925437/9"
         ],
         "files_num_image" : "0",
         "ss_urls_tn_all" : "https://am38oja80gso26tq7ppsf2mpiqvh2ig7r7a52o0.gcdn.biz/ss/3925437/tn_all",
         "files_num_audio_player" : "0",
         "notes" : ""
      },
      {
         "url_pls" : "https://sfdg8jo3ijckjbobgjiuqu1v0avh2ig7r7a52o0.gcdn.biz/pls/RCLlRrIbDKPuBlzXUnl-s12seTrpmP2E43Q-BxRgH4mwRCk0eWSkm9ipWp8ZOf6q1HhCb5BUGeMlu-Qkx1uPDhDez97dGlw6vxFKB9nUUWA/Johnossi.xspf",
         "av_time" : "0000-00-00 00:00:00",
         "id_feeds" : "0",
         "status" : "",
         "is_linked" : "1",
         "av_result" : "error",
         "url_page" : "https://www.furk.net/df/acbfaaf474c1b036",
         "size" : "109179727",
         "ss_width" : "0",
         "av_info" : "",
         "files_num_audio" : "10",
         "video_info" : "",
         "id" : "8049226408417312619",
         "ctime" : "2013-12-17 01:03:29",
         "ss_height" : "0",
         "id_labels" : [],
         "files_num_video_player" : "0",
         "name" : "Johnossi",
         "is_ready" : "1",
         "url_dl" : "https://sfdg8jo3ijckjbobgjiuqu1v0avh2ig7r7a52o0.gcdn.biz/d/r/RCLlRrIbDKPuBlzXUnl-s12seTrpmP2E43Q-BxRgH4mwRCk0eWSkm9ipWp8ZOf6q1HhCb5BUGeMlu-Qkx1uPDhDez97dGlw6vxFKB9nUUWA/Johnossi",
         "files_num_image" : "0",
         "files_num_audio_player" : "10",
         "media_proc_done" : "1",
         "notes" : "",
         "ss_num" : "0",
         "files_num_video" : "0",
         "type" : "audio",
         "info_hash" : "7D5A604924DF265814234259B7ED0A001F55C216"
      },
      {
         "av_time" : "0000-00-00 00:00:00",
         "id_feeds" : "0",
         "status" : "",
         "is_linked" : "1",
         "av_result" : "error",
         "url_page" : "https://www.furk.net/df/012078bd931a87d6",
         "size" : "1420367790",
         "ss_width" : "0",
         "av_info" : "",
         "files_num_audio" : "0",
         "video_info" : "",
         "id" : "12663743978384186374",
         "ctime" : "2013-12-16 15:32:24",
         "ss_height" : "0",
         "id_labels" : [],
         "files_num_video_player" : "0",
         "name" : "Pokemon Adventures.rar",
         "is_ready" : "1",
         "url_dl" : "https://sfdg8jo3ijckjbobgjiuqu1v0avh2ig7r7a52o0.gcdn.biz/d/r/mB_osKsNYXMSwYGJeYIanXTDrcf9EDMT1vIQash9eQ1kpgvt9K4rODMoKYnGO02hlWwMHAfkLdklu-Qkx1uPDhDez97dGlw6vxFKB9nUUWA/Pokemon%20Adventures.rar",
         "files_num_image" : "0",
         "files_num_audio_player" : "0",
         "media_proc_done" : "1",
         "notes" : "",
         "ss_num" : "0",
         "files_num_video" : "0",
         "type" : "",
         "info_hash" : "B50276BFAA2AB5A789B3E27BD09450CDDDB46767"
      },
      {
         "url_pls" : "https://sfdg8jo3ijckjbobgjiuqu1v0avh2ig7r7a52o0.gcdn.biz/pls/ofaguLY3qCbuBlzXUnl-sz4uvb4eOn1D43Q-BxRgH4mwRCk0eWSkm82q8VEZMso118Cl1RayRk4lu-Qkx1uPDhDez97dGlw6vxFKB9nUUWA/The.Vampire.Diaries.S05E10.HDTV.x264-LOL.mp4.xspf",
         "id_feeds" : "18013163663461020020",
         "is_linked" : "1",
         "url_page" : "https://www.furk.net/df/f17ce070394d41db",
         "video_info" : "Duration: 00:42:31.71, start: 0.000000, bitrate: 796 kb/s\n    Stream #0:0(und): Video: h264 (High) (avc1 / 0x31637661), yuv420p, 720x406, 671 kb/s, 23.98 fps, 23.98 tbr, 24k tbn, 47.95 tbc\n    Metadata:\n      creation_time   : 2013-12-13 00:50:55\n      handler_name    : L-SMASH Video Media Handler\n    Stream #0:1(und): Audio: aac (mp4a / 0x6134706D), 48000 Hz, stereo, s16, 121 kb/s\n    Metadata:\n      creation_time   : 2013-12-13 01:24:13\n      handler_name    : GPAC ISO Audio Handler",
         "id" : "15545128620307026838",
         "ss_height" : "169",
         "id_labels" : [],
         "files_num_video_player" : "1",
         "name" : "The.Vampire.Diaries.S05E10.HDTV.x264-LOL.mp4",
         "is_ready" : "1",
         "url_dl" : "https://sfdg8jo3ijckjbobgjiuqu1v0avh2ig7r7a52o0.gcdn.biz/d/r/ofaguLY3qCbuBlzXUnl-sz4uvb4eOn1D43Q-BxRgH4mwRCk0eWSkm82q8VEZMso118Cl1RayRk4lu-Qkx1uPDhDez97dGlw6vxFKB9nUUWA/The.Vampire.Diaries.S05E10.HDTV.x264-LOL.mp4",
         "media_proc_done" : "1",
         "ss_num" : "9",
         "files_num_video" : "1",
         "type" : "video",
         "info_hash" : "DFB9E9A4076363008437D3808C695679ECCC7FDD",
         "av_time" : "0000-00-00 00:00:00",
         "status" : "",
         "av_result" : "error",
         "ss_width" : "300",
         "size" : "254127811",
         "av_info" : "",
         "files_num_audio" : "0",
         "ss_urls_tn" : [
            "https://sfdg8jo3ijckjbobgjiuqu1v0avh2ig7r7a52o0.gcdn.biz/ss/4086874/tn_1",
            "https://sfdg8jo3ijckjbobgjiuqu1v0avh2ig7r7a52o0.gcdn.biz/ss/4086874/tn_2",
            "https://sfdg8jo3ijckjbobgjiuqu1v0avh2ig7r7a52o0.gcdn.biz/ss/4086874/tn_3",
            "https://sfdg8jo3ijckjbobgjiuqu1v0avh2ig7r7a52o0.gcdn.biz/ss/4086874/tn_4",
            "https://sfdg8jo3ijckjbobgjiuqu1v0avh2ig7r7a52o0.gcdn.biz/ss/4086874/tn_5",
            "https://sfdg8jo3ijckjbobgjiuqu1v0avh2ig7r7a52o0.gcdn.biz/ss/4086874/tn_6",
            "https://sfdg8jo3ijckjbobgjiuqu1v0avh2ig7r7a52o0.gcdn.biz/ss/4086874/tn_7",
            "https://sfdg8jo3ijckjbobgjiuqu1v0avh2ig7r7a52o0.gcdn.biz/ss/4086874/tn_8",
            "https://sfdg8jo3ijckjbobgjiuqu1v0avh2ig7r7a52o0.gcdn.biz/ss/4086874/tn_9"
         ],
         "ctime" : "2013-12-15 23:50:07",
         "ss_urls" : [
            "https://sfdg8jo3ijckjbobgjiuqu1v0avh2ig7r7a52o0.gcdn.biz/ss/4086874/1",
            "https://sfdg8jo3ijckjbobgjiuqu1v0avh2ig7r7a52o0.gcdn.biz/ss/4086874/2",
            "https://sfdg8jo3ijckjbobgjiuqu1v0avh2ig7r7a52o0.gcdn.biz/ss/4086874/3",
            "https://sfdg8jo3ijckjbobgjiuqu1v0avh2ig7r7a52o0.gcdn.biz/ss/4086874/4",
            "https://sfdg8jo3ijckjbobgjiuqu1v0avh2ig7r7a52o0.gcdn.biz/ss/4086874/5",
            "https://sfdg8jo3ijckjbobgjiuqu1v0avh2ig7r7a52o0.gcdn.biz/ss/4086874/6",
            "https://sfdg8jo3ijckjbobgjiuqu1v0avh2ig7r7a52o0.gcdn.biz/ss/4086874/7",
            "https://sfdg8jo3ijckjbobgjiuqu1v0avh2ig7r7a52o0.gcdn.biz/ss/4086874/8",
            "https://sfdg8jo3ijckjbobgjiuqu1v0avh2ig7r7a52o0.gcdn.biz/ss/4086874/9"
         ],
         "files_num_image" : "0",
         "ss_urls_tn_all" : "https://sfdg8jo3ijckjbobgjiuqu1v0avh2ig7r7a52o0.gcdn.biz/ss/4086874/tn_all",
         "files_num_audio_player" : "0",
         "notes" : ""
      },
      {
         "url_pls" : "https://3582soma8co1mjo7qbk17iau8qvh2ig7r7a52o0.gcdn.biz/pls/7p7yYwgAyBXuBlzXUnl-s_heOtfWUPGv43Q-BxRgH4mwRCk0eWSkm-js2d0AswkkT46jpnJbg0Alu-Qkx1uPDhDez97dGlw6vxFKB9nUUWA/Arrow.S02E09.HDTV.x264-LOL.mp4.xspf",
         "id_feeds" : "2888438350002060639",
         "is_linked" : "1",
         "url_page" : "https://www.furk.net/df/735365ae21b0e175",
         "video_info" : "Duration: 00:42:04.02, start: 0.000000, bitrate: 930 kb/s\n    Stream #0:0(und): Video: h264 (High) (avc1 / 0x31637661), yuv420p, 720x404, 801 kb/s, 23.98 fps, 23.98 tbr, 24k tbn, 47.95 tbc\n    Metadata:\n      creation_time   : 2013-12-11 19:36:48\n      handler_name    : L-SMASH Video Media Handler\n    Stream #0:1(und): Audio: aac (mp4a / 0x6134706D), 48000 Hz, stereo, s16, 124 kb/s\n    Metadata:\n      creation_time   : 2013-12-12 02:30:35\n      handler_name    : GPAC ISO Audio Handler",
         "id" : "5080843635998849350",
         "ss_height" : "168",
         "id_labels" : [],
         "files_num_video_player" : "1",
         "name" : "Arrow.S02E09.HDTV.x264-LOL.mp4",
         "is_ready" : "1",
         "url_dl" : "https://3582soma8co1mjo7qbk17iau8qvh2ig7r7a52o0.gcdn.biz/d/r/7p7yYwgAyBXuBlzXUnl-s_heOtfWUPGv43Q-BxRgH4mwRCk0eWSkm-js2d0AswkkT46jpnJbg0Alu-Qkx1uPDhDez97dGlw6vxFKB9nUUWA/Arrow.S02E09.HDTV.x264-LOL.mp4",
         "media_proc_done" : "1",
         "ss_num" : "9",
         "files_num_video" : "1",
         "type" : "video",
         "info_hash" : "DA1C94416E39A848E73E8D26AF0DD092C381A6EB",
         "av_time" : "0000-00-00 00:00:00",
         "status" : "",
         "av_result" : "error",
         "ss_width" : "300",
         "size" : "293459053",
         "av_info" : "",
         "files_num_audio" : "0",
         "ss_urls_tn" : [
            "https://3582soma8co1mjo7qbk17iau8qvh2ig7r7a52o0.gcdn.biz/ss/4082708/tn_1",
            "https://3582soma8co1mjo7qbk17iau8qvh2ig7r7a52o0.gcdn.biz/ss/4082708/tn_2",
            "https://3582soma8co1mjo7qbk17iau8qvh2ig7r7a52o0.gcdn.biz/ss/4082708/tn_3",
            "https://3582soma8co1mjo7qbk17iau8qvh2ig7r7a52o0.gcdn.biz/ss/4082708/tn_4",
            "https://3582soma8co1mjo7qbk17iau8qvh2ig7r7a52o0.gcdn.biz/ss/4082708/tn_5",
            "https://3582soma8co1mjo7qbk17iau8qvh2ig7r7a52o0.gcdn.biz/ss/4082708/tn_6",
            "https://3582soma8co1mjo7qbk17iau8qvh2ig7r7a52o0.gcdn.biz/ss/4082708/tn_7",
            "https://3582soma8co1mjo7qbk17iau8qvh2ig7r7a52o0.gcdn.biz/ss/4082708/tn_8",
            "https://3582soma8co1mjo7qbk17iau8qvh2ig7r7a52o0.gcdn.biz/ss/4082708/tn_9"
         ],
         "ctime" : "2013-12-15 18:48:43",
         "ss_urls" : [
            "https://3582soma8co1mjo7qbk17iau8qvh2ig7r7a52o0.gcdn.biz/ss/4082708/1",
            "https://3582soma8co1mjo7qbk17iau8qvh2ig7r7a52o0.gcdn.biz/ss/4082708/2",
            "https://3582soma8co1mjo7qbk17iau8qvh2ig7r7a52o0.gcdn.biz/ss/4082708/3",
            "https://3582soma8co1mjo7qbk17iau8qvh2ig7r7a52o0.gcdn.biz/ss/4082708/4",
            "https://3582soma8co1mjo7qbk17iau8qvh2ig7r7a52o0.gcdn.biz/ss/4082708/5",
            "https://3582soma8co1mjo7qbk17iau8qvh2ig7r7a52o0.gcdn.biz/ss/4082708/6",
            "https://3582soma8co1mjo7qbk17iau8qvh2ig7r7a52o0.gcdn.biz/ss/4082708/7",
            "https://3582soma8co1mjo7qbk17iau8qvh2ig7r7a52o0.gcdn.biz/ss/4082708/8",
            "https://3582soma8co1mjo7qbk17iau8qvh2ig7r7a52o0.gcdn.biz/ss/4082708/9"
         ],
         "files_num_image" : "0",
         "ss_urls_tn_all" : "https://3582soma8co1mjo7qbk17iau8qvh2ig7r7a52o0.gcdn.biz/ss/4082708/tn_all",
         "files_num_audio_player" : "0",
         "notes" : ""
      },
      {
         "url_pls" : "https://u1pqohu6dmjnigb5e7gv04oabevh2ig7r7a52o0.gcdn.biz/pls/4Bk8v8Vt_yruBlzXUnl-s_9FuW4GXk8x43Q-BxRgH4mwRCk0eWSkm82q8VEZMso1TafHoDM_DLklu-Qkx1uPDhDez97dGlw6vxFKB9nUUWA/The.Vampire.Diaries.S05E10.HDTV.x264-LOL%5Brarbg%5D.xspf",
         "id_feeds" : "0",
         "is_linked" : "1",
         "url_page" : "https://www.furk.net/df/86af948ce0b38d1c",
         "video_info" : "Duration: 00:42:31.71, start: 0.000000, bitrate: 796 kb/s\n    Stream #0:0(und): Video: h264 (High) (avc1 / 0x31637661), yuv420p, 720x406, 671 kb/s, 23.98 fps, 23.98 tbr, 24k tbn, 47.95 tbc\n    Metadata:\n      creation_time   : 2013-12-13 00:50:55\n      handler_name    : L-SMASH Video Media Handler\n    Stream #0:1(und): Audio: aac (mp4a / 0x6134706D), 48000 Hz, stereo, s16, 121 kb/s\n    Metadata:\n      creation_time   : 2013-12-13 01:24:13\n      handler_name    : GPAC ISO Audio Handler",
         "id" : "4642829570933967242",
         "ss_height" : "169",
         "id_labels" : [],
         "files_num_video_player" : "1",
         "name" : "The.Vampire.Diaries.S05E10.HDTV.x264-LOL[rarbg]",
         "is_ready" : "1",
         "url_dl" : "https://u1pqohu6dmjnigb5e7gv04oabevh2ig7r7a52o0.gcdn.biz/d/r/4Bk8v8Vt_yruBlzXUnl-s_9FuW4GXk8x43Q-BxRgH4mwRCk0eWSkm82q8VEZMso1TafHoDM_DLklu-Qkx1uPDhDez97dGlw6vxFKB9nUUWA/The.Vampire.Diaries.S05E10.HDTV.x264-LOL%5Brarbg%5D",
         "media_proc_done" : "1",
         "ss_num" : "9",
         "files_num_video" : "1",
         "type" : "video",
         "info_hash" : "0EE15A8607C37350D333718B132684A42E799338",
         "av_time" : "0000-00-00 00:00:00",
         "status" : "",
         "av_result" : "error",
         "ss_width" : "300",
         "size" : "254132204",
         "av_info" : "",
         "files_num_audio" : "0",
         "ss_urls_tn" : [
            "https://u1pqohu6dmjnigb5e7gv04oabevh2ig7r7a52o0.gcdn.biz/ss/4084435/tn_1",
            "https://u1pqohu6dmjnigb5e7gv04oabevh2ig7r7a52o0.gcdn.biz/ss/4084435/tn_2",
            "https://u1pqohu6dmjnigb5e7gv04oabevh2ig7r7a52o0.gcdn.biz/ss/4084435/tn_3",
            "https://u1pqohu6dmjnigb5e7gv04oabevh2ig7r7a52o0.gcdn.biz/ss/4084435/tn_4",
            "https://u1pqohu6dmjnigb5e7gv04oabevh2ig7r7a52o0.gcdn.biz/ss/4084435/tn_5",
            "https://u1pqohu6dmjnigb5e7gv04oabevh2ig7r7a52o0.gcdn.biz/ss/4084435/tn_6",
            "https://u1pqohu6dmjnigb5e7gv04oabevh2ig7r7a52o0.gcdn.biz/ss/4084435/tn_7",
            "https://u1pqohu6dmjnigb5e7gv04oabevh2ig7r7a52o0.gcdn.biz/ss/4084435/tn_8",
            "https://u1pqohu6dmjnigb5e7gv04oabevh2ig7r7a52o0.gcdn.biz/ss/4084435/tn_9"
         ],
         "ctime" : "2013-12-13 03:13:57",
         "ss_urls" : [
            "https://u1pqohu6dmjnigb5e7gv04oabevh2ig7r7a52o0.gcdn.biz/ss/4084435/1",
            "https://u1pqohu6dmjnigb5e7gv04oabevh2ig7r7a52o0.gcdn.biz/ss/4084435/2",
            "https://u1pqohu6dmjnigb5e7gv04oabevh2ig7r7a52o0.gcdn.biz/ss/4084435/3",
            "https://u1pqohu6dmjnigb5e7gv04oabevh2ig7r7a52o0.gcdn.biz/ss/4084435/4",
            "https://u1pqohu6dmjnigb5e7gv04oabevh2ig7r7a52o0.gcdn.biz/ss/4084435/5",
            "https://u1pqohu6dmjnigb5e7gv04oabevh2ig7r7a52o0.gcdn.biz/ss/4084435/6",
            "https://u1pqohu6dmjnigb5e7gv04oabevh2ig7r7a52o0.gcdn.biz/ss/4084435/7",
            "https://u1pqohu6dmjnigb5e7gv04oabevh2ig7r7a52o0.gcdn.biz/ss/4084435/8",
            "https://u1pqohu6dmjnigb5e7gv04oabevh2ig7r7a52o0.gcdn.biz/ss/4084435/9"
         ],
         "files_num_image" : "0",
         "ss_urls_tn_all" : "https://u1pqohu6dmjnigb5e7gv04oabevh2ig7r7a52o0.gcdn.biz/ss/4084435/tn_all",
         "files_num_audio_player" : "0",
         "notes" : ""
      },
      {
         "url_pls" : "https://3582soma8co1nhtmikc64nuc3avh2ig7r7a52o0.gcdn.biz/pls/cpchDmUzy_buBlzXUnl-s9iwK8MektR043Q-BxRgH4mwRCk0eWSkm9mHuj_JcihCzQJRF59YV_8lu-Qkx1uPDhDez97dGlw6vxFKB9nUUWA/Marvels.Agents.of.S.H.I.E.L.D.S01E10.HDTV.x264-2HD.mp4.xspf",
         "id_feeds" : "0",
         "is_linked" : "1",
         "url_page" : "https://www.furk.net/df/81a81ae78c4e3fcb",
         "video_info" : "Duration: 00:41:25.12, start: 0.000000, bitrate: 864 kb/s\n    Stream #0:0(und): Video: h264 (High) (avc1 / 0x31637661), yuv420p, 720x404, 732 kb/s, 23.98 fps, 23.98 tbr, 96k tbn, 47.95 tbc\n    Metadata:\n      creation_time   : 2013-12-11 02:20:16\n    Stream #0:1(und): Audio: aac (mp4a / 0x6134706D), 48000 Hz, stereo, s16, 127 kb/s\n    Metadata:\n      creation_time   : 2013-12-11 02:20:17",
         "id" : "583452080529227380",
         "ss_height" : "168",
         "id_labels" : [],
         "files_num_video_player" : "1",
         "name" : "Marvels.Agents.of.S.H.I.E.L.D.S01E10.HDTV.x264-2HD.mp4",
         "is_ready" : "1",
         "url_dl" : "https://3582soma8co1nhtmikc64nuc3avh2ig7r7a52o0.gcdn.biz/d/r/cpchDmUzy_buBlzXUnl-s9iwK8MektR043Q-BxRgH4mwRCk0eWSkm9mHuj_JcihCzQJRF59YV_8lu-Qkx1uPDhDez97dGlw6vxFKB9nUUWA/Marvels.Agents.of.S.H.I.E.L.D.S01E10.HDTV.x264-2HD.mp4",
         "media_proc_done" : "1",
         "ss_num" : "9",
         "files_num_video" : "1",
         "type" : "video",
         "info_hash" : "5EB5CD2A276740DA3E801C8A0BC883BDD0C2BCD8",
         "av_time" : "0000-00-00 00:00:00",
         "status" : "",
         "av_result" : "error",
         "ss_width" : "300",
         "size" : "268579924",
         "av_info" : "",
         "files_num_audio" : "0",
         "ss_urls_tn" : [
            "https://3582soma8co1nhtmikc64nuc3avh2ig7r7a52o0.gcdn.biz/ss/4080145/tn_1",
            "https://3582soma8co1nhtmikc64nuc3avh2ig7r7a52o0.gcdn.biz/ss/4080145/tn_2",
            "https://3582soma8co1nhtmikc64nuc3avh2ig7r7a52o0.gcdn.biz/ss/4080145/tn_3",
            "https://3582soma8co1nhtmikc64nuc3avh2ig7r7a52o0.gcdn.biz/ss/4080145/tn_4",
            "https://3582soma8co1nhtmikc64nuc3avh2ig7r7a52o0.gcdn.biz/ss/4080145/tn_5",
            "https://3582soma8co1nhtmikc64nuc3avh2ig7r7a52o0.gcdn.biz/ss/4080145/tn_6",
            "https://3582soma8co1nhtmikc64nuc3avh2ig7r7a52o0.gcdn.biz/ss/4080145/tn_7",
            "https://3582soma8co1nhtmikc64nuc3avh2ig7r7a52o0.gcdn.biz/ss/4080145/tn_8",
            "https://3582soma8co1nhtmikc64nuc3avh2ig7r7a52o0.gcdn.biz/ss/4080145/tn_9"
         ],
         "ctime" : "2013-12-11 19:38:51",
         "ss_urls" : [
            "https://3582soma8co1nhtmikc64nuc3avh2ig7r7a52o0.gcdn.biz/ss/4080145/1",
            "https://3582soma8co1nhtmikc64nuc3avh2ig7r7a52o0.gcdn.biz/ss/4080145/2",
            "https://3582soma8co1nhtmikc64nuc3avh2ig7r7a52o0.gcdn.biz/ss/4080145/3",
            "https://3582soma8co1nhtmikc64nuc3avh2ig7r7a52o0.gcdn.biz/ss/4080145/4",
            "https://3582soma8co1nhtmikc64nuc3avh2ig7r7a52o0.gcdn.biz/ss/4080145/5",
            "https://3582soma8co1nhtmikc64nuc3avh2ig7r7a52o0.gcdn.biz/ss/4080145/6",
            "https://3582soma8co1nhtmikc64nuc3avh2ig7r7a52o0.gcdn.biz/ss/4080145/7",
            "https://3582soma8co1nhtmikc64nuc3avh2ig7r7a52o0.gcdn.biz/ss/4080145/8",
            "https://3582soma8co1nhtmikc64nuc3avh2ig7r7a52o0.gcdn.biz/ss/4080145/9"
         ],
         "files_num_image" : "0",
         "ss_urls_tn_all" : "https://3582soma8co1nhtmikc64nuc3avh2ig7r7a52o0.gcdn.biz/ss/4080145/tn_all",
         "files_num_audio_player" : "0",
         "notes" : ""
      },
      {
         "av_time" : "2012-08-02 05:45:54",
         "id_feeds" : "0",
         "status" : "",
         "is_linked" : "1",
         "av_result" : "error",
         "url_page" : "https://www.furk.net/df/7998351e0ed87eaa",
         "size" : "626690769",
         "ss_width" : "0",
         "av_info" : "",
         "files_num_audio" : "0",
         "video_info" : "",
         "id" : "4969847850325378964",
         "ctime" : "2013-12-04 06:07:00",
         "ss_height" : "0",
         "id_labels" : [],
         "files_num_video_player" : "0",
         "name" : "natural reader 11",
         "is_ready" : "1",
         "url_dl" : "https://sfdg8jo3ijckjbobgjiuqu1v0avh2ig7r7a52o0.gcdn.biz/d/r/cpchDmUzy_aWvWEpr5W0lrNfb4CmtbDN43Q-BxRgH4mwRCk0eWSkm-pXdlkqysr83rnpiHTdNtolu-Qkx1uPDhDez97dGlw6vxFKB9nUUWA/natural%20reader%2011",
         "files_num_image" : "0",
         "files_num_audio_player" : "0",
         "media_proc_done" : "1",
         "notes" : "",
         "ss_num" : "0",
         "files_num_video" : "0",
         "type" : "",
         "info_hash" : "0755086F043242A5626C3F87E4544FB340A4738D"
      },
      {
         "av_time" : "0000-00-00 00:00:00",
         "id_feeds" : "0",
         "status" : "",
         "is_linked" : "1",
         "av_result" : "error",
         "url_page" : "https://www.furk.net/df/422049ab43dfeabd",
         "size" : "2915241910",
         "ss_width" : "0",
         "av_info" : "",
         "files_num_audio" : "0",
         "video_info" : "",
         "id" : "12846128625791051436",
         "ctime" : "2013-09-10 20:46:54",
         "ss_height" : "0",
         "id_labels" : [],
         "files_num_video_player" : "0",
         "name" : "MICROSOFT.WINDOWS.8.1.RTM.X86.ENGLISH.DVD-WZT",
         "is_ready" : "1",
         "url_dl" : "https://3582soma8co1mjo7qbk17iau8qvh2ig7r7a52o0.gcdn.biz/d/r/eGsYlHpqIR4vc1_6lYZuphu5k3OTh1O91vIQash9eQ1kpgvt9K4rOGr3pCsXVKckOrWA3yFi0zolu-Qkx1uPDhDez97dGlw6vxFKB9nUUWA/MICROSOFT.WINDOWS.8.1.RTM.X86.ENGLISH.DVD-WZT",
         "files_num_image" : "1",
         "files_num_audio_player" : "0",
         "media_proc_done" : "1",
         "notes" : "",
         "ss_num" : "0",
         "files_num_video" : "0",
         "type" : "",
         "info_hash" : "D40A31912E9C1227826397B208228EFF3839802D"
      },
      {
         "url_pls" : "https://am38oja80gso31f8tktpf424luvh2ig7r7a52o0.gcdn.biz/pls/WoWiGmf8VjQFq-vlIgRp_fjglU3Tys_jbA2NtrCF7exIXErq2_3C3x2-J9D56DhfrifqbCQQFbYlu-Qkx1uPDhDez97dGlw6vxFKB9nUUWA/Sliders%20full.xspf",
         "id_feeds" : "0",
         "is_linked" : "1",
         "url_page" : "https://www.furk.net/df/4b869691643954a3",
         "video_info" : "Duration: 01:27:43.93, start: 0.000000, bitrate: 1312 kb/s\n    Stream #0.0: Video: mpeg4 (Advanced Simple Profile), yuv420p, 576x432 [PAR 1:1 DAR 4:3], 23.98 tbr, 23.98 tbn, 23.98 tbc\n    Stream #0.1: Audio: ac3, 48000 Hz, stereo, s16, 192 kb/s\n    Stream #0.2: Audio: mp3, 48000 Hz, stereo, s16, 192 kb/s",
         "id" : "16329598214856877406",
         "ss_height" : "225",
         "id_labels" : [],
         "files_num_video_player" : "4",
         "name" : "Sliders full",
         "is_ready" : "1",
         "url_dl" : "https://am38oja80gso31f8tktpf424luvh2ig7r7a52o0.gcdn.biz/d/r/WoWiGmf8VjQFq-vlIgRp_fjglU3Tys_jbA2NtrCF7exIXErq2_3C3x2-J9D56DhfrifqbCQQFbYlu-Qkx1uPDhDez97dGlw6vxFKB9nUUWA/Sliders%20full",
         "media_proc_done" : "1",
         "ss_num" : "9",
         "files_num_video" : "91",
         "type" : "video",
         "info_hash" : "9571326A73A106580148ED8F717C08E7A63F6656",
         "av_time" : "2012-01-13 10:56:58",
         "status" : "",
         "av_result" : "ok",
         "ss_width" : "300",
         "size" : "32245938551",
         "av_info" : "Scan summary: Infected=0 Warnings=0 Suspicios=0 Corrupted=0 Protected=0",
         "files_num_audio" : "0",
         "ss_urls_tn" : [
            "https://am38oja80gso31f8tktpf424luvh2ig7r7a52o0.gcdn.biz/ss/1594078/tn_1",
            "https://am38oja80gso31f8tktpf424luvh2ig7r7a52o0.gcdn.biz/ss/1594078/tn_2",
            "https://am38oja80gso31f8tktpf424luvh2ig7r7a52o0.gcdn.biz/ss/1594078/tn_3",
            "https://am38oja80gso31f8tktpf424luvh2ig7r7a52o0.gcdn.biz/ss/1594078/tn_4",
            "https://am38oja80gso31f8tktpf424luvh2ig7r7a52o0.gcdn.biz/ss/1594078/tn_5",
            "https://am38oja80gso31f8tktpf424luvh2ig7r7a52o0.gcdn.biz/ss/1594078/tn_6",
            "https://am38oja80gso31f8tktpf424luvh2ig7r7a52o0.gcdn.biz/ss/1594078/tn_7",
            "https://am38oja80gso31f8tktpf424luvh2ig7r7a52o0.gcdn.biz/ss/1594078/tn_8",
            "https://am38oja80gso31f8tktpf424luvh2ig7r7a52o0.gcdn.biz/ss/1594078/tn_9"
         ],
         "ctime" : "2013-04-24 21:45:00",
         "ss_urls" : [
            "https://am38oja80gso31f8tktpf424luvh2ig7r7a52o0.gcdn.biz/ss/1594078/1",
            "https://am38oja80gso31f8tktpf424luvh2ig7r7a52o0.gcdn.biz/ss/1594078/2",
            "https://am38oja80gso31f8tktpf424luvh2ig7r7a52o0.gcdn.biz/ss/1594078/3",
            "https://am38oja80gso31f8tktpf424luvh2ig7r7a52o0.gcdn.biz/ss/1594078/4",
            "https://am38oja80gso31f8tktpf424luvh2ig7r7a52o0.gcdn.biz/ss/1594078/5",
            "https://am38oja80gso31f8tktpf424luvh2ig7r7a52o0.gcdn.biz/ss/1594078/6",
            "https://am38oja80gso31f8tktpf424luvh2ig7r7a52o0.gcdn.biz/ss/1594078/7",
            "https://am38oja80gso31f8tktpf424luvh2ig7r7a52o0.gcdn.biz/ss/1594078/8",
            "https://am38oja80gso31f8tktpf424luvh2ig7r7a52o0.gcdn.biz/ss/1594078/9"
         ],
         "files_num_image" : "2",
         "ss_urls_tn_all" : "https://am38oja80gso31f8tktpf424luvh2ig7r7a52o0.gcdn.biz/ss/1594078/tn_all",
         "files_num_audio_player" : "0",
         "notes" : ""
      },
      {
         "av_time" : "2011-09-06 12:03:20",
         "id_feeds" : "0",
         "status" : "",
         "is_linked" : "1",
         "av_result" : "ok",
         "url_page" : "https://www.furk.net/df/d8d736541409d89a",
         "size" : "8535572480",
         "ss_width" : "0",
         "av_info" : "Scan summary: Infected=0 Warnings=0 Suspicios=0 Corrupted=0 Protected=0",
         "files_num_audio" : "0",
         "video_info" : "",
         "id" : "11936256058931009195",
         "ctime" : "2013-03-11 10:24:38",
         "ss_height" : "0",
         "id_labels" : [],
         "files_num_video_player" : "0",
         "name" : "OSX_10.6.7.iso",
         "is_ready" : "1",
         "url_dl" : "https://u1pqohu6dmjnigb5e7gv04oabevh2ig7r7a52o0.gcdn.biz/d/r/F1EIGA1VZxZpEL_gTjDlPxMyysKBdD3Q1vIQash9eQ1kpgvt9K4rOP2g_LTw67Tdue88QZSqS4Elu-Qkx1uPDhDez97dGlw6vxFKB9nUUWA/OSX_10.6.7.iso",
         "files_num_image" : "0",
         "files_num_audio_player" : "0",
         "media_proc_done" : "1",
         "notes" : "",
         "ss_num" : "0",
         "files_num_video" : "0",
         "type" : "default",
         "info_hash" : "46F860DC030EBEAA5A0C8A117E271A20F73A822B"
      },
      {
         "av_time" : "0000-00-00 00:00:00",
         "id_feeds" : "0",
         "status" : "",
         "is_linked" : "1",
         "av_result" : "error",
         "url_page" : "https://www.furk.net/df/f3f2938b6b69ce3d",
         "size" : "5270609185",
         "ss_width" : "0",
         "av_info" : "",
         "files_num_audio" : "0",
         "video_info" : "",
         "id" : "138210273692376325",
         "ctime" : "2013-01-02 20:35:36",
         "ss_height" : "0",
         "id_labels" : [],
         "files_num_video_player" : "0",
         "name" : "1000+ ANDROID APKS SEPT 2012 (ALL PAID & PREMIUM)",
         "is_ready" : "1",
         "url_dl" : "https://sfdg8jo3ijckjbobgjiuqu1v0avh2ig7r7a52o0.gcdn.biz/d/r/ZkIXZran73WtGriGdEF_oT9lEEvWuD9V1vIQash9eQ1kpgvt9K4rOF4QWN1njJyPhClqcB9zNsklu-Qkx1uPDhDez97dGlw6vxFKB9nUUWA/1000%2B%20ANDROID%20APKS%20SEPT%202012%20%28ALL%20PAID%20%26%20PREMIUM%29",
         "files_num_image" : "0",
         "files_num_audio_player" : "0",
         "media_proc_done" : "1",
         "notes" : "",
         "ss_num" : "0",
         "files_num_video" : "0",
         "type" : "",
         "info_hash" : "61C56794AE170F04CD196920B2898FBAC1280E7F"
      }
   ],
   "found_files" : "23"
}